<?xml version="1.0" encoding="UTF-8" ?>
<!DOCTYPE svg PUBLIC "-//W3C//DTD SVG 1.1//EN" "http://www.w3.org/Graphics/SVG/1.1/DTD/svg11.dtd">
<svg width="396pt" height="262pt" viewBox="0 0 396 262" version="1.1" xmlns="http://www.w3.org/2000/svg">
<g id="#7f7f7fff">
</g>
<g id="#ffffffff">
<path fill="#ffffff" opacity="1.00" d=" M 66.07 25.02 C 77.62 19.73 90.47 18.12 103.05 17.77 C 122.37 17.83 142.03 21.69 159.08 31.03 C 170.96 25.71 183.79 21.65 196.96 22.38 C 208.45 22.63 219.27 26.84 229.80 31.00 C 238.50 26.06 248.08 22.83 257.84 20.72 C 273.97 17.36 290.79 16.67 306.99 19.96 C 319.35 22.48 332.18 27.63 339.81 38.18 C 344.41 44.14 345.68 51.75 347.52 58.86 C 351.18 73.54 351.98 88.92 349.99 103.91 C 307.80 108.61 265.68 114.04 223.50 118.92 C 215.44 108.67 209.26 96.95 205.49 84.46 C 202.31 74.77 201.89 63.74 206.31 54.36 C 207.98 50.57 210.55 47.29 213.03 44.00 C 205.24 41.90 197.09 40.96 189.03 41.65 C 184.44 42.05 179.99 43.30 175.43 43.90 C 183.55 52.65 187.22 65.16 185.02 76.92 C 181.17 95.61 171.46 112.76 158.54 126.69 C 124.99 130.90 91.39 134.76 57.82 138.87 C 44.73 127.16 38.32 109.40 38.17 92.10 C 37.47 76.12 40.50 60.20 45.47 45.07 C 48.97 35.73 57.31 29.18 66.07 25.02 M 332.55 62.12 C 334.58 76.14 334.62 90.38 332.71 104.41 C 334.96 101.82 335.20 98.22 335.99 95.01 C 337.79 84.02 337.09 72.38 332.55 62.12 M 53.86 71.00 C 51.79 81.97 52.07 93.72 56.43 104.12 C 54.54 90.45 54.71 76.54 56.43 62.86 C 55.27 65.47 54.32 68.17 53.86 71.00 Z" />
<path fill="#ffffff" opacity="1.00" d=" M 303.94 130.24 C 313.64 129.37 323.52 126.75 333.23 128.72 C 342.92 130.66 344.34 145.35 336.23 150.15 C 339.18 151.06 342.25 152.29 344.10 154.92 C 347.90 160.47 347.47 168.80 342.56 173.56 C 339.00 177.07 333.91 178.32 329.08 178.78 C 322.55 179.42 316.05 180.52 309.48 180.81 C 307.87 163.93 305.56 147.12 303.94 130.24 M 320.68 140.30 C 320.94 143.05 321.31 145.79 321.77 148.52 C 325.10 148.66 327.19 145.21 325.61 142.29 C 325.23 139.87 322.41 140.61 320.68 140.30 M 322.72 158.63 C 323.10 161.57 323.51 164.50 323.86 167.44 C 325.60 167.07 327.71 167.34 328.98 165.82 C 329.61 163.59 329.83 160.71 328.11 158.90 C 326.53 157.70 324.49 158.54 322.72 158.63 Z" />
<path fill="#ffffff" opacity="1.00" d=" M 252.23 136.03 C 263.06 134.47 274.01 133.72 284.84 132.09 C 285.69 136.52 285.82 141.05 286.52 145.51 C 280.92 146.27 275.30 146.76 269.70 147.47 C 269.79 148.50 269.96 150.58 270.05 151.61 C 275.31 151.23 280.52 150.33 285.79 149.99 C 286.39 154.31 286.85 158.63 287.25 162.97 C 282.11 163.96 276.85 164.11 271.69 164.95 C 271.88 167.15 272.11 169.35 272.44 171.54 C 278.08 171.02 283.70 170.23 289.34 169.71 C 289.73 174.08 290.12 178.46 290.88 182.79 C 280.09 184.61 269.12 185.21 258.30 186.82 C 255.89 169.94 254.53 152.92 252.23 136.03 Z" />
<path fill="#ffffff" opacity="1.00" d=" M 220.57 139.28 C 225.04 138.70 229.52 138.16 234.01 137.77 C 233.10 155.06 232.02 172.34 230.79 189.61 C 225.66 189.92 220.59 191.00 215.43 191.03 C 212.92 182.25 210.16 173.53 207.62 164.75 C 207.02 174.00 207.01 183.32 205.79 192.53 C 200.69 192.76 195.66 193.76 190.56 193.98 C 185.85 177.39 180.90 160.86 176.01 144.32 C 180.77 143.78 185.53 143.15 190.31 142.72 C 192.25 151.97 194.93 161.06 196.61 170.36 C 197.69 160.91 196.61 151.26 197.91 141.88 C 202.70 141.14 207.55 140.75 212.37 140.20 C 214.65 148.88 217.15 157.50 219.75 166.09 C 220.56 157.20 220.31 148.21 220.57 139.28 Z" />
<path fill="#ffffff" opacity="1.00" d=" M 115.08 151.22 C 120.19 150.68 125.30 150.16 130.38 149.45 C 137.49 165.70 143.98 182.22 150.78 198.61 C 145.06 199.45 139.28 199.80 133.58 200.77 C 132.92 198.77 132.27 196.79 131.64 194.79 C 128.98 195.13 126.33 195.50 123.66 195.81 C 123.42 197.81 123.16 199.82 122.88 201.82 C 117.33 202.52 111.78 203.07 106.23 203.75 C 109.24 186.25 111.97 168.70 115.08 151.22 M 125.18 174.02 C 124.93 177.79 124.90 181.58 124.63 185.36 C 125.59 185.27 127.53 185.08 128.50 184.99 C 127.32 181.36 126.51 177.60 125.18 174.02 Z" />
<path fill="#ffffff" opacity="1.00" d=" M 55.28 157.98 C 60.72 157.21 66.20 156.74 71.66 156.05 C 73.11 168.47 74.44 180.90 75.95 193.31 C 80.94 192.78 85.94 192.21 90.93 191.59 C 91.51 196.08 92.34 200.63 92.27 205.14 C 81.98 206.55 71.59 207.36 61.30 208.83 C 58.92 191.93 57.45 174.90 55.28 157.98 Z" />
</g>
<g id="#3239c6ff">
<path fill="#3239c6" opacity="1.00" d=" M 223.50 118.92 C 265.68 114.04 307.80 108.61 349.99 103.91 C 352.92 104.47 355.58 106.81 355.70 109.93 C 359.26 136.64 363.23 163.29 366.58 190.02 C 365.95 190.06 364.71 190.14 364.08 190.18 C 333.65 193.35 303.31 197.35 272.92 200.89 C 248.67 203.83 224.41 206.64 200.19 209.78 C 151.79 215.53 103.41 221.38 55.02 227.21 C 51.90 227.51 48.34 228.43 45.62 226.36 C 43.76 225.23 43.13 223.04 42.90 221.01 C 39.32 194.66 35.66 168.32 32.03 141.97 C 40.62 140.89 49.22 139.85 57.82 138.87 C 91.39 134.76 124.99 130.90 158.54 126.69 C 180.21 124.21 201.85 121.56 223.50 118.92 M 303.94 130.24 C 305.56 147.12 307.87 163.93 309.48 180.81 C 316.05 180.52 322.55 179.42 329.08 178.78 C 333.91 178.32 339.00 177.07 342.56 173.56 C 347.47 168.80 347.90 160.47 344.10 154.92 C 342.25 152.29 339.18 151.06 336.23 150.15 C 344.34 145.35 342.92 130.66 333.23 128.72 C 323.52 126.75 313.64 129.37 303.94 130.24 M 252.23 136.03 C 254.53 152.92 255.89 169.94 258.30 186.82 C 269.12 185.21 280.09 184.61 290.88 182.79 C 290.12 178.46 289.73 174.08 289.34 169.71 C 283.70 170.23 278.08 171.02 272.44 171.54 C 272.11 169.35 271.88 167.15 271.69 164.95 C 276.85 164.11 282.11 163.96 287.25 162.97 C 286.85 158.63 286.39 154.31 285.79 149.99 C 280.52 150.33 275.31 151.23 270.05 151.61 C 269.96 150.58 269.79 148.50 269.70 147.47 C 275.30 146.76 280.92 146.27 286.52 145.51 C 285.82 141.05 285.69 136.52 284.84 132.09 C 274.01 133.72 263.06 134.47 252.23 136.03 M 220.57 139.28 C 220.31 148.21 220.56 157.20 219.75 166.09 C 217.15 157.50 214.65 148.88 212.37 140.20 C 207.55 140.75 202.70 141.14 197.91 141.88 C 196.61 151.26 197.69 160.91 196.61 170.36 C 194.93 161.06 192.25 151.97 190.31 142.72 C 185.53 143.15 180.77 143.78 176.01 144.32 C 180.90 160.86 185.85 177.39 190.56 193.98 C 195.66 193.76 200.69 192.76 205.79 192.53 C 207.01 183.32 207.02 174.00 207.62 164.75 C 210.16 173.53 212.92 182.25 215.43 191.03 C 220.59 191.00 225.66 189.92 230.79 189.61 C 232.02 172.34 233.10 155.06 234.01 137.77 C 229.52 138.16 225.04 138.70 220.57 139.28 M 115.08 151.22 C 111.97 168.70 109.24 186.25 106.23 203.75 C 111.78 203.07 117.33 202.52 122.88 201.82 C 123.16 199.82 123.42 197.81 123.66 195.81 C 126.33 195.50 128.98 195.13 131.64 194.79 C 132.27 196.79 132.92 198.77 133.58 200.77 C 139.28 199.80 145.06 199.45 150.78 198.61 C 143.98 182.22 137.49 165.70 130.38 149.45 C 125.30 150.16 120.19 150.68 115.08 151.22 M 55.28 157.98 C 57.45 174.90 58.92 191.93 61.30 208.83 C 71.59 207.36 81.98 206.55 92.27 205.14 C 92.34 200.63 91.51 196.08 90.93 191.59 C 85.94 192.21 80.94 192.78 75.95 193.31 C 74.44 180.90 73.11 168.47 71.66 156.05 C 66.20 156.74 60.72 157.21 55.28 157.98 Z" />
<path fill="#3239c6" opacity="1.00" d=" M 320.68 140.30 C 322.41 140.61 325.23 139.87 325.61 142.29 C 327.19 145.21 325.10 148.66 321.77 148.52 C 321.31 145.79 320.94 143.05 320.68 140.30 Z" />
<path fill="#3239c6" opacity="1.00" d=" M 322.72 158.63 C 324.49 158.54 326.53 157.70 328.11 158.90 C 329.83 160.71 329.61 163.59 328.98 165.82 C 327.71 167.34 325.60 167.07 323.86 167.44 C 323.51 164.50 323.10 161.57 322.72 158.63 Z" />
<path fill="#3239c6" opacity="1.00" d=" M 125.18 174.02 C 126.51 177.60 127.32 181.36 128.50 184.99 C 127.53 185.08 125.59 185.27 124.63 185.36 C 124.90 181.58 124.93 177.79 125.18 174.02 Z" />
</g>
<g id="#222786ff">
<path fill="#222786" opacity="1.00" d=" M 272.92 200.89 C 303.31 197.35 333.65 193.35 364.08 190.18 C 358.47 192.13 352.68 193.50 346.96 195.09 C 300.67 207.69 254.38 220.29 208.09 232.88 C 198.06 235.54 188.10 238.51 178.00 240.89 C 185.35 230.49 192.87 220.21 200.19 209.78 C 224.41 206.64 248.67 203.83 272.92 200.89 Z" />
</g>
</svg>
