<?xml version="1.0" encoding="UTF-8" ?>
<!DOCTYPE svg PUBLIC "-//W3C//DTD SVG 1.1//EN" "http://www.w3.org/Graphics/SVG/1.1/DTD/svg11.dtd">
<svg width="1228pt" height="213pt" viewBox="0 0 1228 213" version="1.1" xmlns="http://www.w3.org/2000/svg">
<g id="#ffffffff">
<path fill="#ffffff" opacity="1.00" d=" M 38.32 53.75 C 41.75 34.72 60.88 20.26 80.04 21.52 C 76.00 27.16 68.53 27.27 62.70 29.89 C 56.96 32.66 51.87 37.03 48.75 42.64 C 45.50 48.35 41.84 54.46 42.61 61.32 C 44.70 57.27 45.40 52.69 47.33 48.57 C 51.18 40.75 57.75 33.76 66.44 31.58 C 63.12 36.33 58.18 39.61 54.79 44.32 C 56.86 44.27 58.93 44.21 61.00 44.15 C 57.55 48.99 52.54 53.57 52.44 59.93 C 52.33 64.81 51.93 69.78 52.82 74.61 C 55.13 81.05 59.64 87.03 65.94 89.98 C 73.01 93.40 81.34 95.65 89.01 92.87 C 96.47 90.25 103.20 85.17 107.60 78.58 C 110.46 74.14 111.18 68.81 111.83 63.68 C 113.40 63.69 114.97 63.68 116.55 63.66 C 117.69 69.84 117.15 76.52 114.22 82.16 C 109.92 89.91 103.39 96.66 95.13 100.12 C 85.92 103.88 75.29 104.96 65.83 101.48 C 55.27 97.86 45.20 90.77 40.50 80.38 C 37.39 71.94 36.75 62.59 38.32 53.75 Z" />
<path fill="#ffffff" opacity="1.00" d=" M 85.11 29.68 C 91.28 29.82 97.90 31.99 101.20 37.58 C 95.78 35.06 90.46 32.34 85.11 29.68 Z" />
<path fill="#ffffff" opacity="1.00" d=" M 98.83 29.22 C 102.85 31.31 106.94 33.57 109.88 37.12 C 112.29 39.79 113.87 43.14 116.54 45.57 C 117.99 46.18 119.57 46.41 121.11 46.72 C 119.65 46.73 118.19 46.82 116.73 46.97 C 116.61 47.69 116.38 49.13 116.26 49.85 C 120.86 49.26 125.46 46.39 130.13 48.20 C 144.81 52.89 158.41 63.08 164.74 77.42 C 168.44 86.83 170.73 97.24 168.63 107.31 C 167.06 117.60 162.96 127.49 156.75 135.85 C 151.28 143.07 142.63 146.78 134.26 149.48 C 121.84 153.55 107.81 153.86 95.78 148.32 C 79.50 141.38 68.08 125.62 64.17 108.64 C 66.26 108.59 68.34 108.58 70.42 108.58 C 70.05 110.51 69.67 112.45 69.31 114.39 C 71.35 114.94 73.05 116.21 73.86 118.21 C 78.39 127.35 85.23 135.84 94.59 140.29 C 104.23 144.09 114.62 147.87 125.11 145.61 C 115.58 143.50 105.34 143.42 96.67 138.43 C 89.90 134.59 83.25 129.40 80.22 121.99 C 86.88 124.79 91.47 131.02 98.56 132.97 C 98.53 131.14 98.49 129.31 98.45 127.48 C 104.46 129.62 110.37 132.92 116.94 132.66 C 124.10 132.59 131.55 132.06 138.11 128.92 C 145.90 124.27 152.14 116.88 154.95 108.20 C 157.10 101.84 158.34 94.83 156.33 88.26 C 153.72 79.43 148.66 71.32 141.63 65.34 C 137.34 61.14 131.59 59.14 126.22 56.74 C 120.92 54.06 114.53 55.75 109.38 52.57 C 109.51 51.79 109.63 51.01 109.76 50.24 C 111.72 49.82 113.69 49.41 115.65 48.97 C 111.81 41.02 105.24 35.07 98.83 29.22 Z" />
<path fill="#ffffff" opacity="1.00" d=" M 1100.31 50.71 C 1112.88 49.29 1125.67 52.39 1136.67 58.48 C 1151.65 67.37 1161.60 83.52 1164.27 100.59 C 1165.37 111.12 1164.64 122.18 1159.89 131.81 C 1152.93 147.56 1138.75 160.06 1122.04 164.45 C 1108.70 168.51 1094.11 166.80 1081.37 161.51 C 1067.72 155.18 1056.53 143.33 1051.89 128.91 C 1042.52 104.53 1051.48 73.78 1073.99 59.85 C 1081.57 54.09 1091.04 51.89 1100.31 50.71 M 1054.74 90.11 C 1054.34 102.23 1054.44 114.36 1054.69 126.48 C 1057.24 126.50 1059.79 126.50 1062.36 126.47 C 1062.49 121.81 1062.53 117.14 1062.52 112.47 C 1067.16 112.28 1071.95 112.74 1076.44 111.30 C 1083.82 107.78 1084.43 94.65 1076.38 91.53 C 1069.48 89.06 1061.92 89.64 1054.74 90.11 M 1088.66 108.35 C 1093.15 111.49 1099.18 111.77 1103.09 115.92 C 1101.28 117.59 1099.74 120.29 1097.01 120.36 C 1094.34 119.61 1092.03 118.02 1089.70 116.61 C 1087.85 118.35 1085.79 119.98 1084.51 122.21 C 1084.34 123.65 1085.63 124.55 1086.65 125.32 C 1090.50 128.06 1095.49 127.83 1099.99 127.57 C 1105.13 127.33 1110.55 123.48 1110.69 117.99 C 1110.80 114.78 1111.22 110.84 1108.51 108.52 C 1104.93 105.50 1099.98 105.20 1096.01 102.91 C 1094.14 101.96 1094.71 99.56 1094.30 97.89 C 1097.94 95.77 1101.91 97.54 1105.76 97.55 C 1107.99 96.74 1109.27 94.44 1110.92 92.85 C 1105.96 88.91 1099.14 88.63 1093.25 90.22 C 1086.08 92.43 1082.73 103.15 1088.66 108.35 M 1117.05 90.17 C 1116.56 95.10 1116.59 100.06 1116.66 105.00 C 1116.79 112.19 1116.20 119.42 1117.31 126.56 C 1119.73 126.58 1122.15 126.60 1124.59 126.63 C 1125.11 118.74 1123.90 110.73 1125.73 102.94 C 1129.12 110.50 1131.24 118.52 1134.18 126.25 C 1136.16 126.40 1138.15 126.53 1140.16 126.67 C 1143.88 119.77 1144.06 111.34 1149.09 105.11 C 1150.09 112.49 1149.32 119.96 1149.69 127.38 C 1152.56 127.39 1155.43 127.39 1158.32 127.38 C 1158.60 115.05 1158.35 102.71 1158.47 90.37 C 1154.40 89.71 1150.27 89.63 1146.21 90.21 C 1143.24 97.46 1141.13 105.02 1138.29 112.32 C 1132.20 106.57 1133.83 96.80 1128.49 90.56 C 1124.88 88.97 1120.81 89.92 1117.05 90.17 Z" />
<path fill="#ffffff" opacity="1.00" d=" M 68.99 85.94 C 70.70 73.45 77.89 61.29 89.05 55.08 C 86.30 59.24 82.65 62.66 79.39 66.40 C 74.51 72.05 71.52 78.99 68.99 85.94 Z" />
<path fill="#ffffff" opacity="1.00" d=" M 1062.81 97.35 C 1066.01 97.39 1069.23 97.48 1072.44 97.62 C 1072.86 99.44 1073.30 101.26 1073.73 103.08 C 1070.46 105.47 1066.48 105.96 1062.57 105.49 C 1062.59 102.77 1062.66 100.06 1062.81 97.35 Z" />
<path fill="#ffffff" opacity="1.00" d=" M 34.60 175.46 C 30.68 172.72 32.99 166.12 37.08 164.83 C 40.15 164.09 43.34 164.62 46.44 164.81 C 46.40 166.34 46.36 167.88 46.31 169.42 C 43.88 169.08 41.45 168.74 39.02 168.45 C 38.52 169.17 37.54 170.60 37.05 171.32 C 40.35 173.67 44.36 175.03 47.29 177.88 C 48.34 180.96 48.15 185.26 44.91 186.96 C 41.04 189.61 36.34 187.98 32.37 186.56 C 32.41 185.36 32.46 184.17 32.50 182.98 C 35.30 182.93 37.97 183.80 40.69 184.31 C 42.04 183.75 43.09 182.68 44.25 181.82 C 41.81 178.63 37.79 177.63 34.60 175.46 Z" />
<path fill="#ffffff" opacity="1.00" d=" M 54.77 172.56 C 57.90 171.01 61.64 171.75 64.28 173.92 C 62.26 177.30 56.88 174.33 54.54 177.50 C 54.35 179.40 53.66 182.30 55.86 183.24 C 58.30 183.96 60.88 183.68 63.39 183.77 C 63.53 184.76 63.67 185.74 63.82 186.73 C 60.95 187.71 57.70 189.21 54.86 187.29 C 48.82 185.03 48.55 174.72 54.77 172.56 Z" />
<path fill="#ffffff" opacity="1.00" d=" M 66.84 172.72 C 70.16 172.50 73.49 172.31 76.83 172.35 C 75.56 174.85 73.13 176.34 70.85 177.80 C 70.66 181.01 70.52 184.22 70.35 187.44 C 69.47 187.41 67.70 187.36 66.82 187.33 C 66.54 182.46 66.53 177.58 66.84 172.72 Z" />
<path fill="#ffffff" opacity="1.00" d=" M 89.56 172.36 C 90.73 172.37 91.89 172.38 93.05 172.38 C 93.80 177.21 93.73 182.11 93.19 186.96 C 89.32 187.19 84.87 188.96 81.31 186.78 C 77.96 182.92 79.73 177.25 79.54 172.60 C 80.48 172.61 82.36 172.63 83.30 172.63 C 83.44 175.91 83.24 179.23 83.87 182.46 C 84.24 184.61 86.77 184.35 88.39 184.78 C 89.18 180.69 89.50 176.53 89.56 172.36 Z" />
<path fill="#ffffff" opacity="1.00" d=" M 97.22 172.77 C 103.23 172.29 109.26 172.45 115.27 172.35 C 117.19 172.32 119.62 172.47 120.41 174.58 C 121.90 178.77 121.10 183.31 120.66 187.62 C 119.62 187.60 118.59 187.60 117.56 187.60 C 117.39 183.85 117.17 180.09 116.72 176.36 C 115.70 175.90 114.68 175.44 113.67 174.97 C 110.39 178.32 111.47 183.35 110.69 187.58 C 109.63 187.59 108.57 187.61 107.52 187.63 C 107.32 183.80 107.09 179.96 106.69 176.14 C 105.46 175.80 104.24 175.47 103.02 175.13 C 101.00 178.96 101.04 183.36 100.58 187.56 C 99.51 187.58 98.44 187.60 97.38 187.63 C 97.04 182.69 97.06 177.73 97.22 172.77 Z" />
<path fill="#ffffff" opacity="1.00" d=" M 135.60 172.73 C 139.46 171.50 144.52 172.71 146.21 176.73 C 147.51 180.32 146.84 185.17 143.31 187.27 C 139.56 190.05 134.19 187.81 131.70 184.40 C 130.26 180.28 130.93 174.42 135.60 172.73 M 136.37 175.04 C 132.73 176.70 132.12 182.39 135.52 184.63 C 138.73 187.37 144.26 184.99 144.61 180.83 C 145.01 176.61 140.30 172.94 136.37 175.04 Z" />
<path fill="#ffffff" opacity="1.00" d=" M 150.18 173.26 C 152.84 172.89 155.50 172.56 158.18 172.33 C 156.38 174.11 154.25 175.63 152.89 177.80 C 151.91 180.96 153.16 185.00 150.36 187.39 C 149.38 182.73 149.60 177.95 150.18 173.26 Z" />
<path fill="#ffffff" opacity="1.00" d=" M 163.59 172.74 C 167.07 172.03 171.19 172.07 174.22 174.10 C 174.62 180.12 175.28 186.52 173.30 192.32 C 170.16 196.83 161.65 196.46 159.16 191.36 C 162.07 191.97 164.92 193.03 167.91 193.16 C 170.09 192.81 171.14 190.56 172.51 189.08 C 171.07 188.04 169.62 187.01 168.16 186.01 C 170.07 183.92 173.28 181.55 171.87 178.33 C 170.70 173.94 163.84 173.11 161.87 177.32 C 159.77 181.33 164.02 184.33 166.18 187.12 C 163.85 186.80 161.08 186.52 159.91 184.13 C 158.27 180.19 159.03 174.32 163.59 172.74 Z" />
<path fill="#ffffff" opacity="1.00" d=" M 125.34 184.04 C 126.59 184.69 127.83 185.34 129.08 185.99 C 127.94 186.94 126.80 187.89 125.66 188.84 C 125.54 187.24 125.44 185.64 125.34 184.04 Z" />
</g>
<g id="#245b7aff">
<path fill="#245b7a" opacity="1.00" d=" M 6.42 7.24 C 9.61 7.03 12.81 6.93 16.00 6.96 C 79.00 7.15 142.01 6.77 205.01 7.15 C 542.60 7.21 880.20 7.10 1217.80 7.20 C 1217.86 74.40 1217.86 141.60 1217.80 208.80 C 918.20 208.88 618.60 208.81 319.00 208.84 C 275.33 208.91 231.66 208.66 188.00 209.01 C 136.33 208.99 84.67 209.01 33.00 209.00 C 24.15 208.88 15.28 209.32 6.44 208.75 C 6.45 141.58 6.48 74.41 6.42 7.24 M 207.55 15.51 C 207.35 77.24 207.53 138.98 207.46 200.72 C 214.95 201.59 222.49 201.12 230.00 201.20 C 546.67 201.21 863.34 201.21 1180.01 201.21 C 1190.35 200.98 1200.73 201.76 1211.05 200.69 C 1211.62 194.81 1211.44 188.90 1211.41 183.01 C 1211.41 137.00 1211.41 91.00 1211.41 45.00 C 1211.14 35.15 1212.06 25.24 1210.84 15.43 C 1135.89 15.28 1060.95 15.41 986.00 15.37 C 755.67 15.37 525.33 15.37 295.00 15.37 C 265.85 15.47 236.70 15.17 207.55 15.51 M 38.32 53.75 C 36.75 62.59 37.39 71.94 40.50 80.38 C 45.20 90.77 55.27 97.86 65.83 101.48 C 75.29 104.96 85.92 103.88 95.13 100.12 C 103.39 96.66 109.92 89.91 114.22 82.16 C 117.15 76.52 117.69 69.84 116.55 63.66 C 114.97 63.68 113.40 63.69 111.83 63.68 C 111.18 68.81 110.46 74.14 107.60 78.58 C 103.20 85.17 96.47 90.25 89.01 92.87 C 81.34 95.65 73.01 93.40 65.94 89.98 C 59.64 87.03 55.13 81.05 52.82 74.61 C 51.93 69.78 52.33 64.81 52.44 59.93 C 52.54 53.57 57.55 48.99 61.00 44.15 C 58.93 44.21 56.86 44.27 54.79 44.32 C 58.18 39.61 63.12 36.33 66.44 31.58 C 57.75 33.76 51.18 40.75 47.33 48.57 C 45.40 52.69 44.70 57.27 42.61 61.32 C 41.84 54.46 45.50 48.35 48.75 42.64 C 51.87 37.03 56.96 32.66 62.70 29.89 C 68.53 27.27 76.00 27.16 80.04 21.52 C 60.88 20.26 41.75 34.72 38.32 53.75 M 85.11 29.68 C 90.46 32.34 95.78 35.06 101.20 37.58 C 97.90 31.99 91.28 29.82 85.11 29.68 M 98.83 29.22 C 105.24 35.07 111.81 41.02 115.65 48.97 C 113.69 49.41 111.72 49.82 109.76 50.24 C 109.63 51.01 109.51 51.79 109.38 52.57 C 114.53 55.75 120.92 54.06 126.22 56.74 C 131.59 59.14 137.34 61.14 141.63 65.34 C 148.66 71.32 153.72 79.43 156.33 88.26 C 158.34 94.83 157.10 101.84 154.95 108.20 C 152.14 116.88 145.90 124.27 138.11 128.92 C 131.55 132.06 124.10 132.59 116.94 132.66 C 110.37 132.92 104.46 129.62 98.45 127.48 C 98.49 129.31 98.53 131.14 98.56 132.97 C 91.47 131.02 86.88 124.79 80.22 121.99 C 83.25 129.40 89.90 134.59 96.67 138.43 C 105.34 143.42 115.58 143.50 125.11 145.61 C 114.62 147.87 104.23 144.09 94.59 140.29 C 85.23 135.84 78.39 127.35 73.86 118.21 C 73.05 116.21 71.35 114.94 69.31 114.39 C 69.67 112.45 70.05 110.51 70.42 108.58 C 68.34 108.58 66.26 108.59 64.17 108.64 C 68.08 125.62 79.50 141.38 95.78 148.32 C 107.81 153.86 121.84 153.55 134.26 149.48 C 142.63 146.78 151.28 143.07 156.75 135.85 C 162.96 127.49 167.06 117.60 168.63 107.31 C 170.73 97.24 168.44 86.83 164.74 77.42 C 158.41 63.08 144.81 52.89 130.13 48.20 C 125.46 46.39 120.86 49.26 116.26 49.85 C 116.38 49.13 116.61 47.69 116.73 46.97 C 118.19 46.82 119.65 46.73 121.11 46.72 C 119.57 46.41 117.99 46.18 116.54 45.57 C 113.87 43.14 112.29 39.79 109.88 37.12 C 106.94 33.57 102.85 31.31 98.83 29.22 M 68.99 85.94 C 71.52 78.99 74.51 72.05 79.39 66.40 C 82.65 62.66 86.30 59.24 89.05 55.08 C 77.89 61.29 70.70 73.45 68.99 85.94 M 34.60 175.46 C 37.79 177.63 41.81 178.63 44.25 181.82 C 43.09 182.68 42.04 183.75 40.69 184.31 C 37.97 183.80 35.30 182.93 32.50 182.98 C 32.46 184.17 32.41 185.36 32.37 186.56 C 36.34 187.98 41.04 189.61 44.91 186.96 C 48.15 185.26 48.34 180.96 47.29 177.88 C 44.36 175.03 40.35 173.67 37.05 171.32 C 37.54 170.60 38.52 169.17 39.02 168.45 C 41.45 168.74 43.88 169.08 46.31 169.42 C 46.36 167.88 46.40 166.34 46.44 164.81 C 43.34 164.62 40.15 164.09 37.08 164.83 C 32.99 166.12 30.68 172.72 34.60 175.46 M 54.77 172.56 C 48.55 174.72 48.82 185.03 54.86 187.29 C 57.70 189.21 60.95 187.71 63.82 186.73 C 63.67 185.74 63.53 184.76 63.39 183.77 C 60.88 183.68 58.30 183.96 55.86 183.24 C 53.66 182.30 54.35 179.40 54.54 177.50 C 56.88 174.33 62.26 177.30 64.28 173.92 C 61.64 171.75 57.90 171.01 54.77 172.56 M 66.84 172.72 C 66.53 177.58 66.54 182.46 66.82 187.33 C 67.70 187.36 69.47 187.41 70.35 187.44 C 70.52 184.22 70.66 181.01 70.85 177.80 C 73.13 176.34 75.56 174.85 76.83 172.35 C 73.49 172.31 70.16 172.50 66.84 172.72 M 89.56 172.36 C 89.50 176.53 89.18 180.69 88.39 184.78 C 86.77 184.35 84.24 184.61 83.87 182.46 C 83.24 179.23 83.44 175.91 83.30 172.63 C 82.36 172.63 80.48 172.61 79.54 172.60 C 79.73 177.25 77.96 182.92 81.31 186.78 C 84.87 188.96 89.32 187.19 93.19 186.96 C 93.73 182.11 93.80 177.21 93.05 172.38 C 91.89 172.38 90.73 172.37 89.56 172.36 M 97.22 172.77 C 97.06 177.73 97.04 182.69 97.38 187.63 C 98.44 187.60 99.51 187.58 100.58 187.56 C 101.04 183.36 101.00 178.96 103.02 175.13 C 104.24 175.47 105.46 175.80 106.69 176.14 C 107.09 179.96 107.32 183.80 107.52 187.63 C 108.57 187.61 109.63 187.59 110.69 187.58 C 111.47 183.35 110.39 178.32 113.67 174.97 C 114.68 175.44 115.70 175.90 116.72 176.36 C 117.17 180.09 117.39 183.85 117.56 187.60 C 118.59 187.60 119.62 187.60 120.66 187.62 C 121.10 183.31 121.90 178.77 120.41 174.58 C 119.62 172.47 117.19 172.32 115.27 172.35 C 109.26 172.45 103.23 172.29 97.22 172.77 M 135.60 172.73 C 130.93 174.42 130.26 180.28 131.70 184.40 C 134.19 187.81 139.56 190.05 143.31 187.27 C 146.84 185.17 147.51 180.32 146.21 176.73 C 144.52 172.71 139.46 171.50 135.60 172.73 M 150.18 173.26 C 149.60 177.95 149.38 182.73 150.36 187.39 C 153.16 185.00 151.91 180.96 152.89 177.80 C 154.25 175.63 156.38 174.11 158.18 172.33 C 155.50 172.56 152.84 172.89 150.18 173.26 M 163.59 172.74 C 159.03 174.32 158.27 180.19 159.91 184.13 C 161.08 186.52 163.85 186.80 166.18 187.12 C 164.02 184.33 159.77 181.33 161.87 177.32 C 163.84 173.11 170.70 173.94 171.87 178.33 C 173.28 181.55 170.07 183.92 168.16 186.01 C 169.62 187.01 171.07 188.04 172.51 189.08 C 171.14 190.56 170.09 192.81 167.91 193.16 C 164.92 193.03 162.07 191.97 159.16 191.36 C 161.65 196.46 170.16 196.83 173.30 192.32 C 175.28 186.52 174.62 180.12 174.22 174.10 C 171.19 172.07 167.07 172.03 163.59 172.74 M 125.34 184.04 C 125.44 185.64 125.54 187.24 125.66 188.84 C 126.80 187.89 127.94 186.94 129.08 185.99 C 127.83 185.34 126.59 184.69 125.34 184.04 Z" />
<path fill="#245b7a" opacity="1.00" d=" M 1103.53 32.70 C 1112.95 32.80 1122.64 33.17 1131.51 36.69 C 1146.46 41.53 1159.28 51.84 1168.48 64.42 C 1187.23 90.04 1186.95 127.70 1168.07 153.17 C 1161.31 161.65 1153.31 169.38 1143.86 174.79 C 1132.86 180.56 1120.55 184.85 1107.99 184.44 C 1079.51 185.93 1051.52 168.63 1038.73 143.38 C 1031.43 129.67 1029.08 113.67 1030.90 98.33 C 1033.46 82.98 1039.79 67.95 1050.49 56.49 C 1064.32 42.28 1083.49 32.81 1103.53 32.70 M 1100.31 50.71 C 1091.04 51.89 1081.57 54.09 1073.99 59.85 C 1051.48 73.78 1042.52 104.53 1051.89 128.91 C 1056.53 143.33 1067.72 155.18 1081.37 161.51 C 1094.11 166.80 1108.70 168.51 1122.04 164.45 C 1138.75 160.06 1152.93 147.56 1159.89 131.81 C 1164.64 122.18 1165.37 111.12 1164.27 100.59 C 1161.60 83.52 1151.65 67.37 1136.67 58.48 C 1125.67 52.39 1112.88 49.29 1100.31 50.71 Z" />
<path fill="#245b7a" opacity="1.00" d=" M 539.44 46.71 C 546.31 46.09 553.36 48.84 557.46 54.50 C 562.12 59.44 562.01 66.64 561.42 72.96 C 560.85 78.06 557.44 82.38 553.46 85.38 C 545.19 91.06 532.95 90.32 525.66 83.35 C 517.55 74.94 517.80 60.28 526.02 52.02 C 529.53 48.46 534.58 47.06 539.44 46.71 M 537.38 52.51 C 531.60 53.33 527.80 58.75 525.99 63.88 C 523.95 70.79 528.00 78.35 533.66 82.27 C 539.29 85.11 547.12 84.34 551.34 79.32 C 558.00 72.56 556.60 60.48 549.30 54.74 C 546.00 51.99 541.40 52.04 537.38 52.51 Z" />
<path fill="#245b7a" opacity="1.00" d=" M 345.41 47.32 C 350.78 46.98 356.62 47.47 360.88 51.14 C 371.84 59.51 371.30 79.10 359.15 86.13 C 350.71 91.12 339.06 89.82 332.02 83.00 C 327.28 78.30 326.82 71.29 327.28 65.01 C 327.32 55.57 336.11 47.40 345.41 47.32 M 343.40 52.65 C 332.85 55.65 329.11 70.64 336.38 78.63 C 342.23 86.47 356.02 85.36 360.60 76.74 C 364.24 69.89 363.45 60.00 356.96 55.08 C 353.17 52.09 347.98 51.85 343.40 52.65 Z" />
<path fill="#245b7a" opacity="1.00" d=" M 450.04 47.76 C 455.80 46.70 462.27 46.90 466.88 51.00 C 465.59 52.28 464.32 53.57 463.02 54.82 C 459.20 53.33 454.96 51.34 450.85 52.88 C 447.03 54.14 446.15 60.18 449.46 62.49 C 454.51 66.14 462.15 65.79 465.80 71.38 C 467.65 76.54 466.92 83.60 461.98 86.85 C 457.99 89.18 453.08 89.70 448.63 88.61 C 445.60 87.91 441.83 87.06 440.44 83.93 C 440.30 81.84 442.86 81.36 444.14 80.21 C 446.73 81.43 449.31 82.75 452.11 83.46 C 455.18 84.24 458.31 82.48 460.33 80.27 C 460.92 78.43 460.92 76.42 460.53 74.54 C 455.93 70.14 448.62 70.39 444.09 65.89 C 441.77 62.91 441.07 58.75 441.90 55.11 C 442.71 51.21 446.36 48.66 450.04 47.76 Z" />
<path fill="#245b7a" opacity="1.00" d=" M 506.71 47.67 C 508.61 47.61 510.52 47.54 512.44 47.46 C 512.53 61.10 512.68 74.75 512.35 88.39 C 510.48 88.37 508.60 88.35 506.73 88.34 C 506.47 74.79 506.52 61.23 506.71 47.67 Z" />
<path fill="#245b7a" opacity="1.00" d=" M 294.96 48.22 C 301.44 47.41 308.00 47.85 314.43 48.74 C 322.45 50.03 324.19 62.48 317.90 66.84 C 316.29 68.17 314.57 69.36 312.88 70.58 C 315.82 76.59 320.23 81.73 323.02 87.82 C 320.58 87.71 318.14 87.60 315.71 87.46 C 312.24 81.81 309.57 75.69 305.59 70.37 C 303.91 70.41 302.24 70.44 300.58 70.47 C 300.39 76.05 300.43 81.64 300.38 87.22 C 298.59 87.47 296.79 87.72 295.00 87.97 C 294.34 81.66 294.62 75.32 294.62 69.00 C 294.66 62.07 294.32 55.13 294.96 48.22 M 300.48 53.31 C 300.38 57.27 300.36 61.23 300.36 65.20 C 305.10 65.67 310.49 66.44 314.62 63.47 C 316.06 60.53 316.26 55.86 313.17 53.90 C 309.21 51.95 304.66 52.63 300.48 53.31 Z" />
<path fill="#245b7a" opacity="1.00" d=" M 409.11 48.35 C 416.71 47.64 424.39 47.66 432.00 48.02 C 434.77 47.76 434.48 51.14 435.13 52.96 C 428.22 53.75 421.27 53.25 414.35 53.42 C 414.28 57.13 414.31 60.84 414.46 64.55 C 420.85 64.66 427.31 64.25 433.60 65.66 C 433.54 66.60 433.44 68.47 433.38 69.41 C 427.06 69.68 420.71 69.25 414.41 70.01 C 414.27 74.27 414.27 78.54 414.46 82.80 C 421.48 84.01 428.62 83.18 435.71 83.43 C 435.84 84.83 435.98 86.23 436.13 87.64 C 426.95 87.62 417.75 88.09 408.59 87.31 C 408.43 80.54 408.53 73.77 408.54 67.00 C 408.58 60.78 408.09 54.52 409.11 48.35 Z" />
<path fill="#245b7a" opacity="1.00" d=" M 475.49 51.56 C 479.00 46.60 485.69 47.07 491.03 47.53 C 493.72 47.68 495.84 49.48 497.95 50.94 C 496.96 52.23 495.98 53.53 494.99 54.82 C 491.10 53.43 486.89 51.43 482.71 52.74 C 479.74 54.04 477.24 58.34 479.78 61.15 C 484.72 66.45 494.07 65.26 497.94 71.92 C 499.82 76.94 498.53 83.60 493.89 86.72 C 488.38 89.80 481.43 89.81 475.74 87.17 C 474.01 86.27 471.63 84.87 472.51 82.56 C 473.52 81.60 474.68 80.83 475.81 80.02 C 478.91 81.77 482.11 84.07 485.86 83.78 C 489.45 83.80 492.15 80.37 492.56 77.04 C 490.80 71.19 483.78 71.04 479.17 68.66 C 472.42 66.26 470.73 56.63 475.49 51.56 Z" />
<path fill="#245b7a" opacity="1.00" d=" M 569.84 47.76 C 572.00 47.89 574.44 47.35 576.40 48.58 C 578.27 50.10 579.56 52.19 580.93 54.15 C 584.99 60.35 589.57 66.20 593.28 72.63 C 594.48 74.85 596.12 76.81 598.28 78.16 C 598.88 68.35 598.16 58.52 598.61 48.71 C 600.26 48.52 601.92 48.32 603.58 48.14 C 604.38 53.39 604.43 58.71 604.31 64.00 C 604.11 71.93 604.82 79.89 603.72 87.78 C 600.93 87.43 596.96 88.74 595.39 85.66 C 589.01 75.90 582.81 65.97 575.77 56.67 C 574.48 66.95 576.27 77.36 574.62 87.62 C 573.02 87.68 571.43 87.76 569.84 87.84 C 569.34 82.24 569.45 76.61 569.51 71.00 C 569.60 63.25 569.19 55.49 569.84 47.76 Z" />
<path fill="#245b7a" opacity="1.00" d=" M 627.25 48.24 C 628.75 48.24 630.25 48.22 631.77 48.21 C 635.44 53.44 637.14 59.67 639.64 65.48 C 642.63 72.84 646.13 79.99 648.78 87.49 C 646.80 87.54 644.75 87.94 642.83 87.36 C 640.94 84.35 639.60 81.04 637.90 77.93 C 632.25 77.46 626.57 77.48 620.92 77.76 C 619.09 81.03 617.35 84.36 615.67 87.72 C 613.74 87.72 611.82 87.72 609.90 87.71 C 611.97 80.32 615.77 73.59 618.64 66.50 C 621.45 60.38 623.69 53.98 627.25 48.24 M 622.50 73.28 C 626.90 73.61 631.33 73.60 635.74 73.32 C 634.54 67.34 632.27 61.63 629.11 56.41 C 626.49 61.86 623.98 67.40 622.50 73.28 Z" />
<path fill="#245b7a" opacity="1.00" d=" M 654.55 48.21 C 656.21 48.26 657.87 48.31 659.54 48.35 C 660.19 59.77 658.76 71.28 660.37 82.64 C 666.38 83.64 672.49 83.33 678.56 83.45 C 678.55 84.81 678.55 86.18 678.57 87.55 C 670.55 87.82 662.53 87.73 654.51 87.64 C 654.51 74.50 654.45 61.36 654.55 48.21 Z" />
<path fill="#245b7a" opacity="1.00" d=" M 261.59 48.59 C 267.39 48.37 273.22 48.04 279.03 48.53 C 282.14 48.81 285.34 50.39 286.72 53.33 C 289.44 58.07 288.43 64.63 284.50 68.36 C 279.02 71.26 272.50 70.17 266.53 70.52 C 266.43 76.18 266.46 81.84 266.35 87.50 C 264.75 87.51 263.14 87.52 261.54 87.52 C 261.34 74.55 261.25 61.56 261.59 48.59 M 266.75 52.83 C 266.40 57.04 266.38 61.28 266.59 65.50 C 271.38 65.57 276.91 66.25 280.87 62.92 C 283.72 60.63 282.83 55.97 279.84 54.24 C 275.89 51.94 271.10 52.70 266.75 52.83 Z" />
<path fill="#245b7a" opacity="1.00" d=" M 376.62 48.59 C 384.91 48.21 393.22 48.29 401.52 48.52 C 401.50 50.12 401.49 51.71 401.47 53.30 C 394.99 53.46 388.51 53.33 382.03 53.44 C 381.50 57.47 381.50 61.55 382.01 65.58 C 388.08 65.66 394.16 65.46 400.22 65.97 C 400.03 67.53 399.85 69.09 399.67 70.66 C 393.70 71.54 387.66 71.26 381.65 71.53 C 381.59 76.86 381.58 82.20 381.49 87.53 C 379.84 87.52 378.19 87.51 376.56 87.49 C 376.39 74.52 376.27 61.55 376.62 48.59 Z" />
<path fill="#245b7a" opacity="1.00" d=" M 1054.74 90.11 C 1061.92 89.64 1069.48 89.06 1076.38 91.53 C 1084.43 94.65 1083.82 107.78 1076.44 111.30 C 1071.95 112.74 1067.16 112.28 1062.52 112.47 C 1062.53 117.14 1062.49 121.81 1062.36 126.47 C 1059.79 126.50 1057.24 126.50 1054.69 126.48 C 1054.44 114.36 1054.34 102.23 1054.74 90.11 M 1062.81 97.35 C 1062.66 100.06 1062.59 102.77 1062.57 105.49 C 1066.48 105.96 1070.46 105.47 1073.73 103.08 C 1073.30 101.26 1072.86 99.44 1072.44 97.62 C 1069.23 97.48 1066.01 97.39 1062.81 97.35 Z" />
<path fill="#245b7a" opacity="1.00" d=" M 1088.66 108.35 C 1082.73 103.15 1086.08 92.43 1093.25 90.22 C 1099.14 88.63 1105.96 88.91 1110.92 92.85 C 1109.27 94.44 1107.99 96.74 1105.76 97.55 C 1101.91 97.54 1097.94 95.77 1094.30 97.89 C 1094.71 99.56 1094.14 101.96 1096.01 102.91 C 1099.98 105.20 1104.93 105.50 1108.51 108.52 C 1111.22 110.84 1110.80 114.78 1110.69 117.99 C 1110.55 123.48 1105.13 127.33 1099.99 127.57 C 1095.49 127.83 1090.50 128.06 1086.65 125.32 C 1085.63 124.55 1084.34 123.65 1084.51 122.21 C 1085.79 119.98 1087.85 118.35 1089.70 116.61 C 1092.03 118.02 1094.34 119.61 1097.01 120.36 C 1099.74 120.29 1101.28 117.59 1103.09 115.92 C 1099.18 111.77 1093.15 111.49 1088.66 108.35 Z" />
<path fill="#245b7a" opacity="1.00" d=" M 1117.05 90.17 C 1120.81 89.92 1124.88 88.97 1128.49 90.56 C 1133.83 96.80 1132.20 106.57 1138.29 112.32 C 1141.13 105.02 1143.24 97.46 1146.21 90.21 C 1150.27 89.63 1154.40 89.71 1158.47 90.37 C 1158.35 102.71 1158.60 115.05 1158.32 127.38 C 1155.43 127.39 1152.56 127.39 1149.69 127.38 C 1149.32 119.96 1150.09 112.49 1149.09 105.11 C 1144.06 111.34 1143.88 119.77 1140.16 126.67 C 1138.15 126.53 1136.16 126.40 1134.18 126.25 C 1131.24 118.52 1129.12 110.50 1125.73 102.94 C 1123.90 110.73 1125.11 118.74 1124.59 126.63 C 1122.15 126.60 1119.73 126.58 1117.31 126.56 C 1116.20 119.42 1116.79 112.19 1116.66 105.00 C 1116.59 100.06 1116.56 95.10 1117.05 90.17 Z" />
<path fill="#245b7a" opacity="1.00" d=" M 269.87 111.01 C 279.82 106.78 292.39 107.63 300.82 114.75 C 298.02 117.94 295.04 120.96 291.81 123.71 C 287.38 121.78 282.53 119.21 277.59 120.78 C 275.29 121.97 273.65 124.43 273.41 127.01 C 274.77 132.70 281.40 133.27 286.05 134.78 C 291.80 136.15 297.91 139.66 299.37 145.83 C 300.37 151.61 300.11 158.37 295.94 162.93 C 291.20 168.15 283.84 170.07 277.01 170.16 C 270.82 169.73 264.25 168.55 259.25 164.62 C 258.06 163.80 258.24 162.03 259.02 161.00 C 261.09 157.66 264.09 155.06 266.89 152.36 C 269.61 154.61 272.30 157.11 275.73 158.20 C 279.60 159.18 284.01 157.54 286.46 154.43 C 287.21 152.01 286.94 148.90 284.56 147.49 C 278.01 143.20 269.18 143.30 263.44 137.60 C 259.60 134.01 260.08 128.33 260.39 123.56 C 260.78 117.97 264.75 113.08 269.87 111.01 Z" />
<path fill="#245b7a" opacity="1.00" d=" M 319.36 113.47 C 329.98 107.19 344.23 106.54 354.77 113.35 C 356.05 114.31 358.16 115.47 357.39 117.41 C 354.83 120.60 351.28 122.78 348.08 125.27 C 344.46 122.87 340.66 119.81 336.03 120.30 C 328.33 120.53 322.13 127.08 320.31 134.25 C 317.89 141.22 321.15 148.87 326.30 153.70 C 329.48 156.72 333.87 159.14 338.38 158.34 C 342.43 157.34 345.70 154.59 349.06 152.27 C 352.62 154.58 356.00 157.17 359.14 160.04 C 354.61 167.57 345.28 170.00 337.03 170.06 C 330.05 169.70 322.67 168.39 317.14 163.80 C 309.49 157.70 306.11 147.52 306.60 137.96 C 306.67 128.42 311.07 118.59 319.36 113.47 Z" />
<path fill="#245b7a" opacity="1.00" d=" M 721.33 121.30 C 723.73 113.30 732.25 109.22 740.03 108.59 C 747.37 108.14 755.46 109.43 760.96 114.71 C 758.11 117.77 755.56 121.29 751.94 123.50 C 747.36 122.33 742.58 118.89 737.86 121.56 C 734.23 122.46 733.00 127.73 735.90 130.07 C 741.50 134.84 749.70 134.21 755.60 138.46 C 760.44 142.44 761.45 149.34 760.37 155.21 C 759.20 161.15 754.65 166.16 748.96 168.13 C 739.00 171.97 727.31 170.00 718.85 163.62 C 720.47 159.16 724.01 155.91 727.70 153.12 C 731.75 155.54 736.05 159.53 741.13 158.16 C 744.03 157.30 748.19 155.80 747.68 152.01 C 748.10 149.09 745.51 147.10 743.12 146.12 C 736.80 143.45 729.55 142.46 724.24 137.80 C 719.69 133.73 719.88 126.73 721.33 121.30 Z" />
<path fill="#245b7a" opacity="1.00" d=" M 366.47 110.63 C 372.87 109.12 379.48 109.66 386.00 109.68 C 393.10 109.98 401.11 110.28 406.64 115.37 C 411.41 119.85 410.92 127.07 410.27 133.01 C 409.43 138.90 403.46 141.52 399.13 144.58 C 403.47 152.79 408.96 160.32 413.54 168.39 C 408.15 168.61 402.75 168.60 397.37 168.43 C 393.13 160.90 390.12 152.72 385.32 145.50 C 383.36 145.41 381.40 145.33 379.45 145.23 C 379.11 152.88 379.67 160.55 379.05 168.19 C 374.91 168.53 370.74 168.56 366.60 168.31 C 366.22 149.09 366.46 129.86 366.47 110.63 M 379.54 120.58 C 379.26 124.99 379.24 129.42 379.39 133.84 C 384.04 134.37 388.97 135.09 393.47 133.40 C 397.25 131.82 398.83 126.40 395.65 123.43 C 391.33 119.45 384.91 120.63 379.54 120.58 Z" />
<path fill="#245b7a" opacity="1.00" d=" M 420.42 110.10 C 424.43 109.51 428.50 109.53 432.50 110.19 C 432.75 121.79 432.41 133.39 432.56 144.98 C 432.53 150.20 435.49 155.61 440.58 157.40 C 444.46 159.27 449.06 157.77 452.23 155.19 C 455.64 152.20 456.42 147.35 456.47 143.04 C 456.48 132.04 456.34 121.04 456.44 110.04 C 460.55 109.48 464.74 109.51 468.84 110.20 C 469.85 116.76 469.33 123.40 469.41 130.00 C 469.39 137.05 469.75 144.15 468.51 151.13 C 467.56 158.13 463.02 164.70 456.51 167.61 C 447.47 171.54 436.59 170.69 428.16 165.63 C 422.41 161.47 420.18 153.87 420.32 147.03 C 420.45 134.72 420.22 122.41 420.42 110.10 Z" />
<path fill="#245b7a" opacity="1.00" d=" M 481.07 110.03 C 487.34 109.40 493.65 109.52 499.93 109.88 C 506.16 121.50 508.72 134.64 514.00 146.68 C 519.56 134.77 522.28 121.73 528.10 109.94 C 534.41 109.47 540.76 109.46 547.07 109.96 C 547.67 120.63 547.18 131.32 547.33 142.00 C 547.16 150.84 547.76 159.70 546.95 168.51 C 542.93 168.57 538.90 168.57 534.89 168.51 C 533.95 154.27 535.01 139.97 534.38 125.71 C 529.69 132.74 529.01 141.41 525.81 149.08 C 523.13 155.46 521.27 162.13 518.74 168.57 C 515.39 168.56 512.05 168.51 508.72 168.37 C 504.85 157.88 501.42 147.23 498.32 136.50 C 497.76 134.35 496.44 132.54 494.96 130.93 C 493.79 143.39 494.81 155.95 494.47 168.46 C 490.01 168.58 485.56 168.58 481.11 168.51 C 480.22 159.03 480.90 149.50 480.70 140.00 C 480.89 130.01 480.26 120.00 481.07 110.03 Z" />
<path fill="#245b7a" opacity="1.00" d=" M 583.80 109.96 C 589.52 109.65 595.28 109.25 600.99 109.87 C 603.28 109.77 604.14 112.15 604.93 113.87 C 608.99 124.81 611.71 136.33 616.98 146.79 C 620.08 139.43 621.90 131.62 625.12 124.30 C 627.26 119.69 627.77 114.02 631.31 110.22 C 637.28 108.97 643.57 109.40 649.53 110.65 C 649.53 129.87 649.77 149.10 649.39 168.31 C 645.37 168.53 641.33 168.53 637.32 168.27 C 637.25 154.07 637.60 139.87 637.21 125.68 C 636.03 127.31 634.82 128.96 634.12 130.86 C 629.85 143.38 626.01 156.05 621.51 168.48 C 617.98 168.57 614.46 168.54 610.96 168.30 C 608.21 160.14 606.12 151.77 603.12 143.69 C 601.01 137.99 599.78 131.93 596.65 126.66 C 596.11 140.54 596.87 154.43 596.31 168.31 C 592.11 168.54 587.91 168.54 583.72 168.30 C 583.33 157.87 583.66 147.43 583.56 137.00 C 583.67 127.98 583.27 118.96 583.80 109.96 Z" />
<path fill="#245b7a" opacity="1.00" d=" M 681.45 110.34 C 684.64 108.89 688.28 109.84 691.64 110.12 C 698.17 124.40 704.26 138.89 710.59 153.27 C 712.90 158.25 715.22 163.23 717.02 168.42 C 712.00 168.65 706.97 168.64 701.97 168.25 C 700.32 164.34 699.50 159.80 696.55 156.63 C 691.72 156.03 686.82 156.48 681.97 156.32 C 679.60 156.42 677.10 156.08 674.85 156.95 C 672.33 160.41 671.87 165.04 668.94 168.21 C 664.79 168.88 660.56 168.46 656.40 168.23 C 658.55 160.92 662.00 154.09 664.91 147.07 C 669.03 137.23 673.43 127.50 677.47 117.62 C 678.59 115.10 679.59 112.43 681.45 110.34 M 679.14 144.19 C 683.67 144.94 688.31 144.89 692.86 144.25 C 690.69 139.01 688.47 133.79 685.87 128.75 C 683.17 133.69 680.99 138.89 679.14 144.19 Z" />
<path fill="#245b7a" opacity="1.00" d=" M 765.14 110.24 C 773.72 109.07 782.38 109.90 791.00 109.68 C 797.73 109.70 804.49 109.37 811.20 110.11 C 811.52 113.82 811.53 117.56 811.28 121.28 C 805.72 121.55 800.15 121.52 794.59 121.60 C 794.18 137.17 794.81 152.74 794.30 168.30 C 790.15 168.54 786.00 168.54 781.85 168.30 C 781.33 152.72 782.06 137.12 781.52 121.54 C 776.26 121.53 771.01 121.50 765.76 121.40 C 764.71 117.77 764.29 113.96 765.14 110.24 Z" />
<path fill="#245b7a" opacity="1.00" d=" M 818.36 110.05 C 823.55 109.53 828.78 109.60 834.00 109.66 C 842.06 109.77 850.13 109.41 858.18 109.90 C 858.45 113.87 858.46 117.87 858.19 121.85 C 849.30 122.68 840.38 121.84 831.49 122.39 C 831.47 125.75 831.49 129.11 831.56 132.47 C 839.78 132.93 848.02 132.28 856.24 132.89 C 856.53 136.69 856.56 140.50 856.37 144.31 C 848.12 144.73 839.86 144.23 831.62 144.59 C 831.46 148.56 831.43 152.54 831.50 156.51 C 840.85 156.84 850.23 156.21 859.58 156.84 C 859.69 160.62 859.69 164.41 859.58 168.20 C 845.85 168.63 832.07 168.65 818.33 168.19 C 818.35 148.81 818.30 129.43 818.36 110.05 Z" />
<path fill="#245b7a" opacity="1.00" d=" M 870.27 110.25 C 876.81 109.28 883.44 109.61 890.04 109.73 C 895.57 110.06 901.28 110.42 906.44 112.64 C 911.25 114.72 914.50 119.72 914.68 124.93 C 914.89 129.38 915.02 134.41 912.03 138.05 C 909.44 140.88 905.92 142.60 902.89 144.88 C 907.29 152.90 912.62 160.37 916.99 168.41 C 912.37 168.51 907.75 168.78 903.15 168.44 C 901.05 168.61 900.06 166.48 899.08 165.02 C 895.43 158.54 892.89 151.45 888.48 145.41 C 886.77 145.38 885.07 145.35 883.37 145.30 C 881.98 152.96 882.90 160.76 882.60 168.49 C 878.45 168.58 874.30 168.57 870.16 168.48 C 869.76 165.34 869.54 162.16 869.57 158.99 C 869.66 145.66 869.66 132.32 869.56 118.98 C 869.55 116.06 869.86 113.14 870.27 110.25 M 882.68 120.65 C 882.50 124.98 882.49 129.32 882.56 133.65 C 888.38 134.50 895.55 135.66 900.26 131.25 C 901.21 128.38 901.50 124.26 898.52 122.46 C 893.80 119.48 887.94 120.64 882.68 120.65 Z" />
<path fill="#245b7a" opacity="1.00" d=" M 136.37 175.04 C 140.30 172.94 145.01 176.61 144.61 180.83 C 144.26 184.99 138.73 187.37 135.52 184.63 C 132.12 182.39 132.73 176.70 136.37 175.04 Z" />
</g>
</svg>
