<?xml version="1.0" encoding="UTF-8" ?>
<!DOCTYPE svg PUBLIC "-//W3C//DTD SVG 1.1//EN" "http://www.w3.org/Graphics/SVG/1.1/DTD/svg11.dtd">
<svg width="475pt" height="468pt" viewBox="0 0 475 468" version="1.1" xmlns="http://www.w3.org/2000/svg">
<g id="#ffffffff">
<path fill="#ffffff" opacity="1.00" d=" M 69.66 140.67 C 79.83 133.54 93.01 131.63 105.10 133.62 C 111.45 134.64 118.67 138.12 120.21 144.96 C 121.46 149.78 119.04 154.45 115.93 157.98 C 108.57 154.69 99.79 152.59 92.13 156.12 C 86.56 158.38 82.66 163.77 81.72 169.64 C 80.49 176.37 81.59 184.28 87.01 188.98 C 93.74 194.93 103.91 195.10 111.92 191.82 C 113.37 191.50 115.20 189.89 116.50 191.37 C 120.36 194.26 122.41 199.24 121.38 204.00 C 120.45 209.81 114.51 212.81 109.37 214.18 C 92.05 217.90 71.43 213.31 60.77 198.21 C 53.99 188.76 52.57 176.43 54.48 165.19 C 56.07 155.44 61.54 146.35 69.66 140.67 Z" />
<path fill="#ffffff" opacity="1.00" d=" M 149.95 134.90 C 158.90 132.43 168.77 131.89 177.69 134.73 C 175.60 139.15 173.27 143.45 171.15 147.86 C 178.79 147.04 186.38 145.82 194.00 144.85 C 195.80 144.32 196.81 146.13 197.80 147.26 C 204.22 155.29 206.87 165.81 206.48 175.97 C 206.30 185.87 203.12 195.97 196.38 203.39 C 189.58 210.65 179.77 214.62 169.95 215.30 C 160.15 216.07 149.83 214.90 141.29 209.70 C 131.71 204.36 125.49 194.25 123.54 183.62 C 121.72 172.99 122.72 161.56 128.13 152.07 C 132.67 143.66 140.89 137.65 149.95 134.90 M 161.37 154.50 C 153.28 156.34 150.49 165.71 150.60 173.02 C 150.50 178.88 151.07 185.32 155.04 189.96 C 159.52 195.35 168.82 195.83 173.63 190.64 C 176.88 187.26 178.18 182.50 178.55 177.94 C 178.97 171.76 178.68 165.13 175.28 159.74 C 172.40 155.22 166.49 153.24 161.37 154.50 Z" />
<path fill="#ffffff" opacity="1.00" d=" M 233.63 134.65 C 246.44 131.41 261.05 132.15 272.12 140.00 C 277.79 137.09 283.58 134.01 290.02 133.32 C 299.43 132.26 309.63 133.03 317.83 138.18 C 323.30 141.52 327.16 147.17 328.73 153.35 C 329.89 157.80 329.77 162.44 329.79 167.01 C 329.77 182.32 329.92 197.63 329.84 212.94 C 323.71 214.17 317.34 214.85 311.15 213.73 C 308.00 213.26 305.15 211.22 303.78 208.35 C 302.68 205.71 302.65 202.79 302.59 199.99 C 302.60 187.98 302.61 175.98 302.61 163.98 C 302.66 160.96 301.98 157.51 299.18 155.83 C 294.53 152.82 288.39 154.17 284.03 157.08 C 283.91 175.71 284.12 194.34 283.93 212.97 C 277.05 214.20 269.72 215.24 262.93 213.02 C 258.48 211.43 256.80 206.35 256.83 202.02 C 256.66 189.00 256.87 175.97 256.75 162.95 C 256.88 159.90 255.36 156.75 252.51 155.44 C 248.01 153.09 242.73 154.35 238.38 156.37 C 238.04 175.23 238.63 194.12 238.10 212.97 C 231.20 214.16 223.86 215.28 217.08 212.97 C 212.65 211.41 211.11 206.36 211.09 202.08 C 210.93 186.72 211.10 171.36 211.01 155.99 C 211.02 152.40 210.96 148.36 213.54 145.52 C 218.63 139.58 226.27 136.67 233.63 134.65 Z" />
<path fill="#ffffff" opacity="1.00" d=" M 352.71 138.73 C 361.75 133.30 372.71 132.12 383.03 133.28 C 394.14 134.57 404.89 140.43 411.15 149.83 C 420.78 164.65 420.14 185.09 410.85 199.92 C 406.25 205.79 400.15 210.56 393.01 212.89 C 383.08 216.24 372.14 216.35 362.04 213.68 C 355.96 211.89 350.22 208.78 345.69 204.32 C 334.89 193.63 332.20 176.96 335.51 162.57 C 337.82 152.78 343.91 143.77 352.71 138.73 M 372.39 154.61 C 368.12 155.70 365.04 159.44 363.63 163.47 C 361.96 168.34 361.87 173.59 362.32 178.67 C 362.86 183.00 364.02 187.60 367.30 190.71 C 372.21 195.69 381.53 195.50 385.88 189.88 C 390.06 184.57 390.41 177.43 390.05 170.97 C 389.63 165.85 388.33 160.23 384.12 156.88 C 380.95 154.11 376.35 153.65 372.39 154.61 Z" />
<path fill="#ffffff" opacity="1.00" d=" M 217.98 229.06 C 226.76 226.91 235.92 226.50 244.90 227.34 C 253.58 228.16 262.43 230.98 268.74 237.23 C 273.24 242.42 275.49 249.20 275.43 256.03 C 275.54 268.03 275.56 280.03 275.43 292.02 C 275.61 296.64 272.32 300.36 268.65 302.68 C 259.83 308.17 249.18 309.44 239.00 309.52 C 229.21 309.46 218.72 308.33 210.55 302.46 C 197.98 293.75 197.85 271.29 211.77 263.84 C 223.27 257.82 236.72 258.99 249.19 256.88 C 249.09 254.02 248.31 250.85 245.51 249.51 C 239.26 246.43 231.95 246.97 225.27 248.07 C 220.37 248.40 215.76 250.15 211.06 251.37 C 206.47 248.35 205.09 241.77 206.84 236.76 C 208.79 232.37 213.60 230.23 217.98 229.06 M 230.10 278.06 C 225.73 280.60 227.61 287.55 232.06 288.87 C 237.64 290.49 243.71 289.59 249.18 287.90 C 249.29 283.59 249.29 279.27 249.20 274.96 C 242.84 275.76 235.87 274.84 230.10 278.06 Z" />
<path fill="#ffffff" opacity="1.00" d=" M 304.94 227.75 C 314.75 226.08 325.12 226.17 334.59 229.47 C 339.08 231.02 343.74 234.24 344.61 239.24 C 345.24 243.75 343.97 249.20 340.00 251.84 C 331.59 248.77 322.55 246.22 313.53 247.55 C 311.06 247.93 307.75 248.97 307.71 252.01 C 307.61 254.98 310.95 255.94 313.25 256.57 C 321.31 258.48 329.61 260.05 336.93 264.10 C 341.99 266.89 346.26 271.47 347.78 277.14 C 350.05 285.55 348.02 295.44 341.33 301.34 C 333.69 308.19 322.89 309.59 313.02 309.71 C 304.86 309.53 296.25 309.08 288.95 305.06 C 284.27 302.61 280.88 297.41 281.70 292.01 C 281.85 288.20 284.39 285.21 286.99 282.69 C 294.18 286.20 301.83 289.31 309.97 289.21 C 313.94 289.20 319.14 289.35 321.47 285.48 C 322.85 282.30 319.65 279.64 316.79 279.15 C 307.35 276.94 297.20 275.76 289.17 269.83 C 281.36 264.24 279.52 253.14 282.42 244.43 C 284.52 237.85 290.19 233.24 296.19 230.30 C 299.10 229.42 301.99 228.49 304.94 227.75 Z" />
<path fill="#ffffff" opacity="1.00" d=" M 122.00 233.21 C 127.98 227.87 137.09 225.95 144.42 229.54 C 148.41 231.43 150.03 235.90 151.06 239.88 C 153.18 248.66 155.65 257.35 157.83 266.12 C 159.16 271.51 160.51 276.91 161.96 282.27 C 162.17 283.42 162.78 284.41 163.61 285.22 C 165.45 277.85 167.29 270.48 168.97 263.08 C 171.52 252.38 173.71 241.59 175.95 230.82 C 182.53 227.68 190.57 226.34 197.35 229.64 C 200.51 231.08 202.26 234.60 202.06 237.99 C 201.86 243.80 200.00 249.37 198.56 254.95 C 193.15 271.25 187.53 287.55 180.03 303.04 C 178.73 306.25 174.98 307.05 172.00 307.91 C 165.16 309.37 157.72 309.48 151.13 306.90 C 147.57 305.62 145.53 302.25 144.09 298.97 C 140.28 290.35 137.10 281.46 133.94 272.58 C 129.45 259.62 125.16 246.56 122.00 233.21 Z" />
</g>
<g id="#3239c6ff">
<path fill="#3239c6" opacity="1.00" d=" M 184.62 13.67 C 212.73 7.00 242.12 5.93 270.65 10.38 C 308.06 16.22 343.91 31.86 373.54 55.43 C 415.32 88.30 444.38 136.77 453.82 189.07 C 439.46 192.53 425.30 196.84 410.85 199.92 C 420.14 185.09 420.78 164.65 411.15 149.83 C 404.89 140.43 394.14 134.57 383.03 133.28 C 372.71 132.12 361.75 133.30 352.71 138.73 C 343.91 143.77 337.82 152.78 335.51 162.57 C 332.20 176.96 334.89 193.63 345.69 204.32 C 350.22 208.78 355.96 211.89 362.04 213.68 C 358.75 213.73 355.55 214.52 352.39 215.37 C 336.61 219.62 320.75 223.62 304.94 227.75 C 301.99 228.49 299.10 229.42 296.19 230.30 C 286.95 232.20 277.88 234.88 268.74 237.23 C 262.43 230.98 253.58 228.16 244.90 227.34 C 235.92 226.50 226.76 226.91 217.98 229.06 C 213.60 230.23 208.79 232.37 206.84 236.76 C 205.09 241.77 206.47 248.35 211.06 251.37 C 215.76 250.15 220.37 248.40 225.27 248.07 C 216.59 251.09 207.62 253.42 198.56 254.95 C 200.00 249.37 201.86 243.80 202.06 237.99 C 202.26 234.60 200.51 231.08 197.35 229.64 C 190.57 226.34 182.53 227.68 175.95 230.82 C 173.71 241.59 171.52 252.38 168.97 263.08 C 165.25 264.08 161.53 265.08 157.83 266.12 C 155.65 257.35 153.18 248.66 151.06 239.88 C 150.03 235.90 148.41 231.43 144.42 229.54 C 137.09 225.95 127.98 227.87 122.00 233.21 C 125.16 246.56 129.45 259.62 133.94 272.58 C 130.07 273.24 126.27 274.22 122.49 275.27 C 90.56 283.56 58.61 291.82 26.69 300.20 C 18.01 275.86 14.32 249.81 14.99 224.00 C 15.75 164.37 42.52 105.71 86.69 65.71 C 114.20 40.40 148.30 22.42 184.62 13.67 M 69.66 140.67 C 61.54 146.35 56.07 155.44 54.48 165.19 C 52.57 176.43 53.99 188.76 60.77 198.21 C 71.43 213.31 92.05 217.90 109.37 214.18 C 114.51 212.81 120.45 209.81 121.38 204.00 C 122.41 199.24 120.36 194.26 116.50 191.37 C 115.20 189.89 113.37 191.50 111.92 191.82 C 103.91 195.10 93.74 194.93 87.01 188.98 C 81.59 184.28 80.49 176.37 81.72 169.64 C 82.66 163.77 86.56 158.38 92.13 156.12 C 99.79 152.59 108.57 154.69 115.93 157.98 C 119.04 154.45 121.46 149.78 120.21 144.96 C 118.67 138.12 111.45 134.64 105.10 133.62 C 93.01 131.63 79.83 133.54 69.66 140.67 M 149.95 134.90 C 140.89 137.65 132.67 143.66 128.13 152.07 C 122.72 161.56 121.72 172.99 123.54 183.62 C 125.49 194.25 131.71 204.36 141.29 209.70 C 149.83 214.90 160.15 216.07 169.95 215.30 C 179.77 214.62 189.58 210.65 196.38 203.39 C 203.12 195.97 206.30 185.87 206.48 175.97 C 206.87 165.81 204.22 155.29 197.80 147.26 C 196.81 146.13 195.80 144.32 194.00 144.85 C 186.38 145.82 178.79 147.04 171.15 147.86 C 173.27 143.45 175.60 139.15 177.69 134.73 C 168.77 131.89 158.90 132.43 149.95 134.90 M 233.63 134.65 C 226.27 136.67 218.63 139.58 213.54 145.52 C 210.96 148.36 211.02 152.40 211.01 155.99 C 211.10 171.36 210.93 186.72 211.09 202.08 C 211.11 206.36 212.65 211.41 217.08 212.97 C 223.86 215.28 231.20 214.16 238.10 212.97 C 238.63 194.12 238.04 175.23 238.38 156.37 C 242.73 154.35 248.01 153.09 252.51 155.44 C 255.36 156.75 256.88 159.90 256.75 162.95 C 256.87 175.97 256.66 189.00 256.83 202.02 C 256.80 206.35 258.48 211.43 262.93 213.02 C 269.72 215.24 277.05 214.20 283.93 212.97 C 284.12 194.34 283.91 175.71 284.03 157.08 C 288.39 154.17 294.53 152.82 299.18 155.83 C 301.98 157.51 302.66 160.96 302.61 163.98 C 302.61 175.98 302.60 187.98 302.59 199.99 C 302.65 202.79 302.68 205.71 303.78 208.35 C 305.15 211.22 308.00 213.26 311.15 213.73 C 317.34 214.85 323.71 214.17 329.84 212.94 C 329.92 197.63 329.77 182.32 329.79 167.01 C 329.77 162.44 329.89 157.80 328.73 153.35 C 327.16 147.17 323.30 141.52 317.83 138.18 C 309.63 133.03 299.43 132.26 290.02 133.32 C 283.58 134.01 277.79 137.09 272.12 140.00 C 261.05 132.15 246.44 131.41 233.63 134.65 Z" />
<path fill="#3239c6" opacity="1.00" d=" M 161.37 154.50 C 166.49 153.24 172.40 155.22 175.28 159.74 C 178.68 165.13 178.97 171.76 178.55 177.94 C 178.18 182.50 176.88 187.26 173.63 190.64 C 168.82 195.83 159.52 195.35 155.04 189.96 C 151.07 185.32 150.50 178.88 150.60 173.02 C 150.49 165.71 153.28 156.34 161.37 154.50 Z" />
<path fill="#3239c6" opacity="1.00" d=" M 372.39 154.61 C 376.35 153.65 380.95 154.11 384.12 156.88 C 388.33 160.23 389.63 165.85 390.05 170.97 C 390.41 177.43 390.06 184.57 385.88 189.88 C 381.53 195.50 372.21 195.69 367.30 190.71 C 364.02 187.60 362.86 183.00 362.32 178.67 C 361.87 173.59 361.96 168.34 363.63 163.47 C 365.04 159.44 368.12 155.70 372.39 154.61 Z" />
</g>
<g id="#000000ff">
<path fill="#000000" opacity="1.00" d=" M 410.85 199.92 C 425.30 196.84 439.46 192.53 453.82 189.07 C 461.28 229.98 457.12 273.01 441.45 311.57 C 426.77 348.19 402.02 380.71 370.68 404.66 C 338.20 429.50 298.72 445.12 258.01 449.00 C 222.23 452.59 185.58 447.39 152.31 433.69 C 93.87 410.00 46.58 360.11 26.69 300.20 C 58.61 291.82 90.56 283.56 122.49 275.27 C 126.27 274.22 130.07 273.24 133.94 272.58 C 137.10 281.46 140.28 290.35 144.09 298.97 C 145.53 302.25 147.57 305.62 151.13 306.90 C 157.72 309.48 165.16 309.37 172.00 307.91 C 174.98 307.05 178.73 306.25 180.03 303.04 C 187.53 287.55 193.15 271.25 198.56 254.95 C 207.62 253.42 216.59 251.09 225.27 248.07 C 231.95 246.97 239.26 246.43 245.51 249.51 C 248.31 250.85 249.09 254.02 249.19 256.88 C 236.72 258.99 223.27 257.82 211.77 263.84 C 197.85 271.29 197.98 293.75 210.55 302.46 C 218.72 308.33 229.21 309.46 239.00 309.52 C 249.18 309.44 259.83 308.17 268.65 302.68 C 272.32 300.36 275.61 296.64 275.43 292.02 C 275.56 280.03 275.54 268.03 275.43 256.03 C 275.49 249.20 273.24 242.42 268.74 237.23 C 277.88 234.88 286.95 232.20 296.19 230.30 C 290.19 233.24 284.52 237.85 282.42 244.43 C 279.52 253.14 281.36 264.24 289.17 269.83 C 297.20 275.76 307.35 276.94 316.79 279.15 C 319.65 279.64 322.85 282.30 321.47 285.48 C 319.14 289.35 313.94 289.20 309.97 289.21 C 301.83 289.31 294.18 286.20 286.99 282.69 C 284.39 285.21 281.85 288.20 281.70 292.01 C 280.88 297.41 284.27 302.61 288.95 305.06 C 296.25 309.08 304.86 309.53 313.02 309.71 C 322.89 309.59 333.69 308.19 341.33 301.34 C 348.02 295.44 350.05 285.55 347.78 277.14 C 346.26 271.47 341.99 266.89 336.93 264.10 C 329.61 260.05 321.31 258.48 313.25 256.57 C 310.95 255.94 307.61 254.98 307.71 252.01 C 307.75 248.97 311.06 247.93 313.53 247.55 C 322.55 246.22 331.59 248.77 340.00 251.84 C 343.97 249.20 345.24 243.75 344.61 239.24 C 343.74 234.24 339.08 231.02 334.59 229.47 C 325.12 226.17 314.75 226.08 304.94 227.75 C 320.75 223.62 336.61 219.62 352.39 215.37 C 355.55 214.52 358.75 213.73 362.04 213.68 C 372.14 216.35 383.08 216.24 393.01 212.89 C 400.15 210.56 406.25 205.79 410.85 199.92 Z" />
<path fill="#000000" opacity="1.00" d=" M 157.83 266.12 C 161.53 265.08 165.25 264.08 168.97 263.08 C 167.29 270.48 165.45 277.85 163.61 285.22 C 162.78 284.41 162.17 283.42 161.96 282.27 C 160.51 276.91 159.16 271.51 157.83 266.12 Z" />
<path fill="#000000" opacity="1.00" d=" M 230.10 278.06 C 235.87 274.84 242.84 275.76 249.20 274.96 C 249.29 279.27 249.29 283.59 249.18 287.90 C 243.71 289.59 237.64 290.49 232.06 288.87 C 227.61 287.55 225.73 280.60 230.10 278.06 Z" />
</g>
</svg>
