<svg id="visual" viewBox="0 0 900 50" width="900" height="50" xmlns="http://www.w3.org/2000/svg" xmlns:xlink="http://www.w3.org/1999/xlink" version="1.1"><path d="M0 8L30 7.8C60 7.7 120 7.3 180 7.3C240 7.3 300 7.7 360 7.8C420 8 480 8 540 8C600 8 660 8 720 8C780 8 840 8 870 8L900 8L900 0L870 0C840 0 780 0 720 0C660 0 600 0 540 0C480 0 420 0 360 0C300 0 240 0 180 0C120 0 60 0 30 0L0 0Z" fill="#11233100"></path><path d="M0 11L30 10.8C60 10.7 120 10.3 180 10.3C240 10.3 300 10.7 360 10.8C420 11 480 11 540 11.2C600 11.3 660 11.7 720 11.7C780 11.7 840 11.3 870 11.2L900 11L900 6L870 6C840 6 780 6 720 6C660 6 600 6 540 6C480 6 420 6 360 5.8C300 5.7 240 5.3 180 5.3C120 5.3 60 5.7 30 5.8L0 6Z" fill="#0a284a50"></path><path d="M0 17L30 16.7C60 16.3 120 15.7 180 15.7C240 15.7 300 16.3 360 16.5C420 16.7 480 16.3 540 16.2C600 16 660 16 720 15.8C780 15.7 840 15.3 870 15.2L900 15L900 9L870 9.2C840 9.3 780 9.7 720 9.7C660 9.7 600 9.3 540 9.2C480 9 420 9 360 8.8C300 8.7 240 8.3 180 8.3C120 8.3 60 8.7 30 8.8L0 9Z" fill="#23285e50"></path><path d="M0 28L30 27.7C60 27.3 120 26.7 180 26.3C240 26 300 26 360 26.2C420 26.3 480 26.7 540 26.7C600 26.7 660 26.3 720 26.3C780 26.3 840 26.7 870 26.8L900 27L900 13L870 13.2C840 13.3 780 13.7 720 13.8C660 14 600 14 540 14.2C480 14.3 420 14.7 360 14.5C300 14.3 240 13.7 180 13.7C120 13.7 60 14.3 30 14.7L0 15Z" fill="#4a206950"></path><path d="M0 30L30 29.8C60 29.7 120 29.3 180 29C240 28.7 300 28.3 360 28.3C420 28.3 480 28.7 540 28.7C600 28.7 660 28.3 720 28.3C780 28.3 840 28.7 870 28.8L900 29L900 25L870 24.8C840 24.7 780 24.3 720 24.3C660 24.3 600 24.7 540 24.7C480 24.7 420 24.3 360 24.2C300 24 240 24 180 24.3C120 24.7 60 25.3 30 25.7L0 26Z" fill="#521c6a50"></path><path d="M0 33L30 32.8C60 32.7 120 32.3 180 32C240 31.7 300 31.3 360 31.5C420 31.7 480 32.3 540 32.3C600 32.3 660 31.7 720 31.7C780 31.7 840 32.3 870 32.7L900 33L900 27L870 26.8C840 26.7 780 26.3 720 26.3C660 26.3 600 26.7 540 26.7C480 26.7 420 26.3 360 26.3C300 26.3 240 26.7 180 27C120 27.3 60 27.7 30 27.8L0 28Z" fill="#4a206950"></path><path d="M0 37L30 36.8C60 36.7 120 36.3 180 36C240 35.7 300 35.3 360 35.3C420 35.3 480 35.7 540 35.7C600 35.7 660 35.3 720 35.3C780 35.3 840 35.7 870 35.8L900 36L900 31L870 30.7C840 30.3 780 29.7 720 29.7C660 29.7 600 30.3 540 30.3C480 30.3 420 29.7 360 29.5C300 29.3 240 29.7 180 30C120 30.3 60 30.7 30 30.8L0 31Z" fill="#23285e50"></path><path d="M0 47L30 47C60 47 120 47 180 47C240 47 300 47 360 47C420 47 480 47 540 47C600 47 660 47 720 47C780 47 840 47 870 47L900 47L900 34L870 33.8C840 33.7 780 33.3 720 33.3C660 33.3 600 33.7 540 33.7C480 33.7 420 33.3 360 33.3C300 33.3 240 33.7 180 34C120 34.3 60 34.7 30 34.8L0 35Z" fill="#0a284a50"></path><path d="M0 51L30 51C60 51 120 51 180 51C240 51 300 51 360 51C420 51 480 51 540 51C600 51 660 51 720 51C780 51 840 51 870 51L900 51L900 45L870 45C840 45 780 45 720 45C660 45 600 45 540 45C480 45 420 45 360 45C300 45 240 45 180 45C120 45 60 45 30 45L0 45Z" fill="#11233100"></path></svg>